<svg xmlns="http://www.w3.org/2000/svg" version="1.1" width="600px" height="600px" xlink="http://www.w3.org/1999/xlink" style="overflow:hidden!important;"><g id="svga-group-wrapper" transform="scale(3 3)"><g id="svga-group-backs-single"><path id="SvgjsPath15454" d="M225,225H-25V-25h250V225z" fill="#c4c7f3" stroke-width="none" opacity="1" stroke="none"></path><path id="SvgjsPath15455" d="M-25,62.366V48.224L48.224-25h14.142L-25,62.366z M90.649-25H76.507L-25,76.507v14.142L90.649-25z M118.934-25h-14.142L-25,104.792v14.143L118.934-25z M147.219-25h-14.143L-25,133.075v14.143L147.219-25z M225-25h-7.071L-25,217.929V225h7.071L225-17.929V-25z M5.796-25H-8.345L-25-8.345V5.796L5.796-25z M34.081-25H19.939L-25,19.939v14.142L34.081-25z M175.503-25H161.36L-25,161.36v14.143L175.503-25z M-25-22.487L-22.487-25H-25V-22.487z M225,151.776v-14.143L137.635,225h14.142L225,151.776z M225,180.062v-14.143L165.919,225h14.143L225,180.062z M225,208.345v-14.143L194.203,225h14.143L225,208.345z M225,123.493v-14.143L109.351,225h14.142L225,123.493z M225,222.487L222.487,225H225V222.487z M225,38.64V24.497L24.497,225H38.64L225,38.64z M225,95.208V81.066L81.066,225h14.142L225,95.208z M225,10.355V-3.787L-3.787,225h14.142L225,10.355z M203.787-25h-14.143L-25,189.646v14.141L203.787-25z M225,66.924V52.782L52.782,225h14.142L225,66.924z" fill="#a1a5e4" stroke-width="none" opacity="1" stroke="none"></path></g><g id="svga-group-subwrapper" ><g id="svga-group-hair-back" ><path id="SvgjsPath15463" d="M100.5,100.5h-1v-1h1V100.5z" fill="#4e4341" stroke-width="none" opacity="1" stroke="none"></path></g><g id="svga-group-humanbody-single"><path id="SvgjsPath15307" d="M195.417 199.778c-2.196-4.746-8.195-11.779-14.86-13.722 -8.239-2.403-26.837-5.308-33.733-6.923 -5.528-1.296-16.662-11.294-20.564-14.65 -0.7-0.6-1.273-1.839-1.287-2.76 -0.139-10.864 4.195-39.724 4.195-39.724H100 70.833c0 0 4.334 28.859 4.193 39.724 -0.011 0.921-0.587 2.16-1.285 2.76 -3.902 3.356-15.036 13.354-20.564 14.65 -6.897 1.615-25.495 4.619-33.733 7.022 -6.667 1.942-12.664 8.876-14.86 13.622 -3.708 8.008-4.584 22.5-4.584 35h100 100C200 222.278 199.123 207.786 195.417 199.778z" fill="#753915" stroke-width="none" opacity="1" stroke="none"></path><path id="SvgjsPath15308" d="M159.156 184.058c24.342 3.542 34.586 8.708 37.794 50.721H200c0-12.5-0.877-26.992-4.583-35 -2.196-4.746-8.195-11.779-14.86-13.722 -8.239-2.403-26.837-5.308-33.733-6.923 -5.528-1.296-18.242-12.069-21.643-16.35 3.36 4.704 12.791 15.605 21.054 18.46C150.188 182.61 153.48 183.232 159.156 184.058zM53.766 181.244c8.263-2.854 17.693-13.756 21.054-18.46 -3.4 4.28-16.114 15.054-21.643 16.35 -6.896 1.615-25.494 4.619-33.733 7.022 -6.665 1.942-12.664 8.876-14.86 13.622 -3.706 8.008-4.583 22.5-4.583 35h3.05c3.188-41.744 13.475-47.183 37.794-50.721C46.52 183.232 49.813 182.61 53.766 181.244z" fill="#844925" stroke-width="none" opacity="1" stroke="none"></path><path id="SvgjsPath15309" d="M95.646 197.62c0 0-5.074-1.609-7.083-2.379 -10.449-4.009-44.395-6.607-44.395-6.607s35.754 1.419 43.644 2.779c-0.458-4.767-3.017-20.004-3.017-20.004s5.149 16.815 6.409 21.057C91.878 194.734 95.646 197.62 95.646 197.62zM106.445 196.278c-0.089 0.073-0.191 0.168-0.302 0.268C106.256 196.461 106.358 196.372 106.445 196.278zM95.646 197.62c0 0 2.893 2.992 4.347 3.03 1.91 0.051 4.828-2.899 6.151-4.104 -1.265 0.957-4.159 1.391-5.31 1.436C99.504 198.033 95.646 197.62 95.646 197.62zM116.664 190.101c-1.545 0.248-4.386 0.789-4.386 0.789l2.287-14.89c-0.646 3.071-4.474 16.211-8.12 20.278 1.91-1.616 6.158-2.391 8.324-2.704 10.236-1.484 10.232-1.483 41.062-4.94C155.831 188.634 126.76 188.479 116.664 190.101z" fill="#662b08" stroke-width="none" opacity="1" stroke="none"></path><path id="SvgjsPath15310" d="M195.417 199.778c-2.196-4.746-8.195-11.779-14.86-13.722 -8.239-2.403-26.837-5.308-33.733-6.923 -5.528-1.296-16.662-11.294-20.564-14.65 -0.7-0.6-1.273-1.839-1.287-2.76 -0.139-10.864 4.195-39.724 4.195-39.724H100 70.833c0 0 4.334 28.859 4.193 39.724 -0.011 0.921-0.587 2.16-1.285 2.76 -3.902 3.356-15.036 13.354-20.564 14.65 -6.897 1.615-25.495 4.619-33.733 7.022 -6.667 1.942-12.664 8.876-14.86 13.622 -3.708 8.008-4.584 22.5-4.584 35h100 100C200 222.278 199.123 207.786 195.417 199.778z" fill="none" stroke="#471b00" stroke-width="1.5" opacity="1"></path></g><g id="svga-group-chinshadow-single"><path id="SvgjsPath15580" d="M75.517 163.052c6.979 4.54 16.307 8.814 24.485 8.814 7.828 0 17.345-4.309 24.458-8.869 -0.145-0.428-0.233-0.862-0.239-1.264 -0.126-9.877 3.345-34.021 4.076-38.983H71.703c0.73 4.963 4.202 29.106 4.074 38.982C75.772 162.146 75.676 162.603 75.517 163.052z" fill="url(#SvgjsLinearGradient15581)" opacity="1"></path></g><g id="svga-group-clothes-single" ><path id="SvgjsPath15566" d="M-3.682 236.192c-2.914-24.293 8.022-47.09 34.496-54.611 7.77-2.208 5.691-3.341 6.867-3.41 -0.039-0.211-0.045-0.2-0.045-0.63h-0.036c0.087-8.03 9.028-6.453 11.587-6.984 10.121-2.158 13.558-12.786 25.115-9.985 0.284 2.437 0.075 5.248-1.371 15.663 10.899 23.466 22.722 21.437 26.925 34.571 3.815-11.746 17.339-13.617 27.306-34.576 -0.655-5.884-2.083-11.033-1.482-15.935l0.057-0.042c7.744-2.583 11.127 0.874 14.21 3.854 9.397 9.083 14.382 3.325 19.085 7.457 1.871 1.659 2.547 3.997 2.547 6.518 21.412 3.11 45.974 9.898 41.089 57.481l0.096 0.104C181.094 235.667 57.546 241.095-3.682 236.192z" fill="#591956" stroke-width="none" opacity="1" stroke="none"></path><path id="SvgjsPath15567" d="M100.268 209.685c4.229-10.638 16.946-13.132 26.543-32.755 0.098-0.108 0.347-0.591 0.656-1.237 -0.164-1.826-0.372-3.747-1.213-5.757 -0.522-3.35-0.939-6.489-0.587-9.535 1.974 0.578 3.842 1.262 5.12 2.66 1.882 2.052 0.455 5.609-1.346 9.042C126.063 186.844 117.594 197.493 100.268 209.685zM169.282 198.859c2.938 10.376 4.895 26.928 2.544 37.445 1.962-0.045 2.686-0.097 4.506-0.138C177.146 225.12 175.154 207.48 169.282 198.859zM137.604 200.735c-12.805 7.48-25.687 10.358-37.321 20.291 -11.64-9.904-24.647-11.637-37.453-19.108 -5.87-2.36-14.874-10.699-20.377-16.572 17.313 26.284 29.706 18.823 57.434 36.538 27.736-17.715 40.205-11.692 57.516-37.974C151.9 189.782 143.476 198.39 137.604 200.735zM99.81 210.936c-4.238-10.644-16.459-14.383-26.056-34.006 -0.093-0.108-0.343-0.591-0.652-1.237 0.156-1.826-0.262-3.841 0.586-5.857 0.521-3.358 0.748-6.092 0.393-9.132 -1.969 0.574-3.025 0.959-4.303 2.357 -1.88 2.052-0.453 5.609 1.347 9.042C74.502 186.844 82.479 198.74 99.81 210.936zM27.163 197.688c-4.305 9.396-4.34 27.432-3.528 38.479 1.821 0.041 2.548 0.093 4.506 0.138C25.791 225.787 26.379 208.26 27.163 197.688zM99.888 212.964c16.389-4.909 33.813-13.894 48.305-35.847 -13.084 17.643-32.525 28.063-47.926 34.455 -15.89-5.762-34.915-17.221-46.006-32.635C67.257 200.226 83.508 208.055 99.888 212.964z" fill="#4a0d47" stroke-width="none" opacity="1" stroke="none"></path><path id="SvgjsPath15568" d="M202.762 235.667c-0.115 0-0.256 0.001-0.374 0.001 -0.427-48.615-27.497-50.574-42.48-53.725 -2.345 0-3.563-6.505-5.288-8.24 -1.467-1.475-12.769-1.475-16.348-11.169 0.583 0.513 1.131 1.052 1.674 1.573 9.397 9.083 14.382 3.325 19.085 7.457 1.871 1.659 2.547 3.997 2.547 6.518 21.412 3.11 45.974 9.898 41.089 57.481L202.762 235.667zM-3.968 236.84c0.114 0 0.255 0.001 0.376 0.001 4.759-38.632 16.029-50.811 43.543-55.364 3.451-1.313 1.634-3.81 3.362-5.544 1.467-1.468 9.627-1.5 20.924-13.389 -0.582 0.513-3.075 1.042-3.615 1.563 -9.398 9.083-16.485 6.51-19.088 7.457 -3.209 1.188-3.707 4.028-3.707 6.546 -21.414 3.111-44.161 14.974-41.702 58.626L-3.968 236.84z" fill="#682865" stroke-width="none" opacity="1" stroke="none"></path><path id="SvgjsPath15569" d="M161.69 177.978c0-9.858-9.265-7.895-13.529-8.812 -9.409-2.02-9.113-12.916-22.582-8.985 -0.574 4.657 0.516 8.738 1.473 15.997 -9.877 20.755-23.576 23.093-27.196 34.245 -3.957-12.38-16.045-11.134-26.81-34.171 1.498-10.838 1.648-13.354 1.36-15.774 -10.271-2.349-12.588 4.32-21.876 8.776 -5.637 2.642-7.229 0.263-12.067 2.633 -2.007 0.968-3.018 3.609-2.946 5.767 -0.013 0.01 0 0.01 0 0.01 0 0.139 0 0.267 0.023 0.396 -1.175 0.082 0.546 0.074-7.323 1.346 -25.363 4.1-36.61 25.534-34.005 56.906 11.89 0 1.011 4.382 183.147-0.077 8.456-0.214 22.799-0.447 23.402-0.447C208.321 189.265 184.836 181.568 161.69 177.978zM-3.624 236.057c2.579-36.004 8.018-50.026 41.046-57.329 17.978 29.839 39.98 25.499 62.232 42.189 -20.166-16.771-41.302-14.549-61.622-42.583 -0.228-2.354 1-4.943 3.535-5.959 1.796-0.702 3.72-0.498 5.6-0.488 7.087 0.054 12.546-5.502 17.793-9.578 2.499-1.67 6.22-1.752 9.2-1.292 0.231 3.874-1.262 9.721-1.762 13.845 -1.042-2.295-2.029-4.664-3.015-7.022 12.47 36.624 24.903 28.334 30.461 43.525 -1.177-0.327-21.014-7.468-36.822-23.188 -3.358-3.325-10.011-10.656-10.516-11.34 19.573 26.51 32.079 27.86 47.391 34.691 0 0.01 0.021 0.035 0.021 0.048 0.012 0.036 0.068 0.221 0.086 0.256 0.074-0.033 0.158-0.07 0.239-0.091 0.026-0.022 0.047-0.033 0.08-0.033 2.122-1.043 16.065-5.902 26.681-13.2 10.927-7.517 23.39-23.821 22.451-22.64 -18.253 18.573-21.075 22.785-49.212 35.67 -0.027 0-0.048-0.01-0.069-0.021 -0.022-0.131-0.064-0.257-0.107-0.387 0.011-0.062 0.032-0.121 0.054-0.178 4.948-13.579 19.476-8.33 31.51-45.554 -1.232 3.216-2.527 6.382-3.979 9.486 -0.457-5.455-2.042-9.756-1.865-14.247 2.084-0.693 7.742-1.022 9.308 0.542 6.529 5.586 7.059 9.677 17.696 9.677 3.411 0.02 7.871 0.45 8.375 6.708 -0.627 0.922-5.291 6.431-9.703 10.809 -15.438 15.368-29.249 15.664-50.619 32.007 0.521 0 1.605-1.131 2.029-1.418 16.712-11.864 28.719-11.677 44.085-24.249 7.082-5.785 13.897-15.044 14.63-16.222 0.022 0.013 0.059 0.013 0.079 0.013 28.198 4.853 42.321 15.462 40.764 57.069C76.043 234.783 58.884 238.145-3.624 236.057z" fill="#2b0029" stroke-width="none" opacity="1" stroke="none"></path></g><g id="svga-group-head" ><g id="svga-group-ears-left" ><path id="SvgjsPath15561" d="M47.218 81.505c-0.967-2.487-8.082-6.002-11.21-5.447 -3.538 0.627-4.838 4.356-4.369 7.119 1.103 6.487 3.996 9.219 5.296 14.286 1.096 4.273 3.433 6.732 4.588 8.548 1.42 2.228 2.73 7.341 3.023 8.087 0.463 1.18 2.103 4.043 5.002 3.896 3.333-0.172 7.545-6.688 7.614-8.135C57.544 102.009 49.733 87.979 47.218 81.505z" fill="#753915" stroke="#471b00" stroke-width="1.5" opacity="1"></path><path id="SvgjsPath15562" d="M47.953 107.96c0 0 0.429-1.071-0.094-2.022 -0.672-1.223-2.423-3.468-2.821-4.811 -0.325-1.098-0.16-3.445-0.213-4.593 -0.094-2.03-1.492-3.42-1.927-4.585 -2.914-7.793-6.792-12.623-9-13.626 -1.633 3.989-0.339 6.907 1.94 13.045 -1.375-8.342-0.054-10.95-0.054-10.95s4.018 3.465 6.001 11.172c0.359 1.391-1.111 4.294-0.83 5.705 0.352 1.772 4.184 5.201 5.257 6.635C47.049 105.047 47.953 107.96 47.953 107.96z" fill="#471b00" stroke-width="none" opacity="1" stroke="none"></path></g><g id="svga-group-ears-right" ><path id="SvgjsPath15563" d="M152.52 81.505c0.967-2.487 8.082-6.002 11.211-5.447 3.539 0.627 4.838 4.356 4.369 7.119 -1.104 6.487-3.996 9.219-5.297 14.286 -1.096 4.273-3.434 6.732-4.588 8.548 -1.42 2.228-2.73 7.341-3.023 8.087 -0.463 1.18-2.104 4.043-5.002 3.896 -3.332-0.172-7.545-6.688-7.613-8.135C142.193 102.009 150.006 87.979 152.52 81.505z" fill="#753915" stroke="#471b00" stroke-width="1.5" opacity="1"></path><path id="SvgjsPath15564" d="M151.785 107.96c0 0-0.43-1.071 0.094-2.022 0.672-1.223 2.424-3.468 2.82-4.811 0.324-1.098 0.16-3.445 0.215-4.593 0.094-2.03 1.49-3.42 1.926-4.585 2.914-7.793 6.793-12.623 9-13.626 1.633 3.989 0.338 6.907-1.939 13.045 1.375-8.342 0.053-10.95 0.053-10.95s-4.018 3.465-6.002 11.172c-0.357 1.391 1.111 4.294 0.83 5.705 -0.352 1.772-4.184 5.201-5.256 6.635C152.689 105.047 151.785 107.96 151.785 107.96z" fill="#471b00" stroke-width="none" opacity="1" stroke="none"></path></g><g id="svga-group-faceshape-wrap" ><g id="svga-group-faceshape-single" ><path id="SvgjsPath15577" d="M100.002 0.867C66.384 0.92 39.082 28.536 39.134 62.56c0.009 5.403 0.704 10.643 2.002 15.634h0.001c0.012 0.054 8.341 20.48 10.463 33.205 2.38 14.276 10.462 30.232 16.302 35.786 6.052 5.756 20.281 14.682 32.099 14.682 11.267 0 26.046-8.926 32.099-14.682 5.84-5.554 13.922-21.51 16.302-35.786 2.122-12.725 10.452-33.151 10.463-33.205h0.002c1.298-4.992 1.994-10.231 2.002-15.634C160.923 28.536 133.62 0.92 100.002 0.867z" fill="#753915" stroke-width="none" opacity="1"></path><path id="SvgjsPath15578" d="M136.901 13.53c12.866 11.318 21.063 28.416 21.036 47.539 -0.009 5.403-0.671 10.642-1.906 15.634h-0.001c-0.011 0.054-7.939 20.48-9.959 33.205 -2.267 14.277-9.959 30.233-15.517 35.786 -5.761 5.757-19.828 14.683-30.552 14.683 -11.249 0-24.792-8.926-30.552-14.683 -5.558-5.553-13.25-21.509-15.516-35.786 -2.02-12.724-9.948-33.15-9.959-33.205h-0.001c-1.236-4.992-1.898-10.231-1.906-15.634 -0.028-19.122 8.168-36.218 21.033-47.537C48.519 24.809 39.104 42.574 39.134 62.56c0.009 5.403 0.704 10.643 2.002 15.634h0.001c0.012 0.054 8.341 20.48 10.463 33.205 2.38 14.276 10.462 30.232 16.302 35.786 6.052 5.756 20.281 14.682 32.099 14.682 11.267 0 26.046-8.926 32.099-14.682 5.84-5.554 13.922-21.51 16.302-35.786 2.122-12.725 10.452-33.151 10.463-33.205h0.002c1.298-4.992 1.994-10.231 2.002-15.634C160.901 42.573 151.485 24.806 136.901 13.53z" fill="#6d320e" stroke-width="none" opacity="1"></path><path id="SvgjsPath15579" d="M100.002 0.867C66.384 0.92 39.082 28.536 39.134 62.56c0.009 5.403 0.704 10.643 2.002 15.634h0.001c0.012 0.054 8.341 20.48 10.463 33.205 2.38 14.276 10.462 30.232 16.302 35.786 6.052 5.756 20.281 14.682 32.099 14.682 11.267 0 26.046-8.926 32.099-14.682 5.84-5.554 13.922-21.51 16.302-35.786 2.122-12.725 10.452-33.151 10.463-33.205h0.002c1.298-4.992 1.994-10.231 2.002-15.634C160.923 28.536 133.62 0.92 100.002 0.867z" fill="none" stroke="#471b00" stroke-width="1.5" opacity="1"></path></g></g><g id="svga-group-mouth-single" ><path id="SvgjsPath15554" d="M99.983 141.177c-3.24 0-4.753-3.8-4.753-3.8s4.826 0.199 9.279 0.933C104.509 138.31 102.832 141.177 99.983 141.177z" fill="url(#SvgjsLinearGradient15555)" opacity="1"></path><path id="SvgjsPath15558" d="M87.792 135.571c-0.373-0.33 1.528-3.373 3.926-4.045 3.031-0.882 5.759 0.026 7.991 0.413 2.034 0.354 5.041 0.049 7.028 0.579 2.249 0.6 8.464 3.283 7.981 3.8 -0.238 0.255-4.963-1.676-8.076-2.278 -1.98-0.384-4.881-0.086-6.874-0.413 -2.062-0.337-4.47-1.21-7.268-0.805C89.962 133.189 88.217 135.947 87.792 135.571z" fill="#471b00" stroke-width="none" opacity="1" stroke="none"></path></g><g id="svga-group-eyes-left" ><g id="svga-group-eyesback-left"><path id="SvgjsPath15484" d="M59.164 79.489c0.656 2.984 5.746 12.648 16.527 11.916 3.947-0.268 12.147-1.775 12.605-4.859 0.442-2.96-12.741-8.905-17.873-8.456C59.658 79.032 59.164 79.489 59.164 79.489z" fill="url(#SvgjsRadialGradient15485)" opacity="1"></path></g><g id="svga-group-eyesiriswrapper-left" transform="translate(0.5 0.5)"><g id="svga-group-eyesiriscontrol-left" ><g id="svga-group-eyesiris-left" ><path id="SvgjsPath15542" d="M81.235 86.646c-1.087 5.321-5.202 8.456-9.201 6.994 -3.996-1.46-6.356-6.964-5.269-12.286 1.086-5.324 5.211-8.458 9.207-6.996C79.965 75.818 82.323 81.322 81.235 86.646z" fill="#681711" stroke="#3a0400" stroke-width="0.5" opacity="1"></path><path id="SvgjsPath15543" d="M80.068 86.771c-1.06 4.085-4.26 6.469-7.374 5.332 -2.875-1.053-4.689-4.732-4.454-8.62 1.068-0.112 2.233-0.146 3.444-0.066 -0.012 0.056-0.033 0.104-0.045 0.161 -0.381 1.875 0.509 3.841 1.991 4.384 1.487 0.542 3.001-0.545 3.385-2.419 0.047-0.245 0.073-0.49 0.081-0.732C78.112 85.304 79.109 85.942 80.068 86.771z" fill="#77251f" stroke-width="none" opacity="1" stroke="none"></path><path id="SvgjsPath15544" d="M75.015 81.018c-1.501-0.574-3.035 0.569-3.422 2.564 -0.389 1.986 0.515 4.063 2.017 4.638 1.505 0.575 3.039-0.569 3.426-2.555C77.427 83.669 76.52 81.591 75.015 81.018zM75.344 88.071c-0.625 0.258-1.271-0.085-1.443-0.771 -0.166-0.685 0.205-1.444 0.833-1.698 0.629-0.259 1.273 0.086 1.447 0.767C76.35 87.05 75.978 87.812 75.344 88.071z" fill="#000000" stroke-width="none" opacity="0.9"></path><path id="SvgjsPath15545" d="M70.014 89.265c-0.463 0.37-1.152 0.04-1.548-0.744 -0.396-0.777-0.335-1.708 0.129-2.079 0.458-0.364 1.156-0.034 1.549 0.744C70.532 87.964 70.477 88.896 70.014 89.265z" fill="#ffffff" stroke-width="none" opacity="0.6"></path><path id="SvgjsPath15546" d="M79.888 83.568c-1.058 0.843-2.647 0.083-3.547-1.701 -0.9-1.786-0.764-3.92 0.293-4.762 1.056-0.849 2.646-0.087 3.542 1.699C81.074 80.589 80.945 82.721 79.888 83.568z" fill="#ffffff" stroke-width="none" opacity="0.9"></path></g></g></g><g id="svga-group-eyesfront-left"><path id="SvgjsPath15509" d="M55.272 86.694c1.203 13.754 10.653 24.163 21.106 23.249 10.453-0.915 17.952-12.807 16.749-26.561 -1.203-13.754-10.653-24.164-21.106-23.249C61.567 61.048 54.069 72.94 55.272 86.694zM59.164 79.489c0 0 0.494-0.457 11.26-1.399 5.132-0.449 18.315 5.495 17.873 8.456 -0.458 3.084-8.658 4.591-12.605 4.859C64.91 92.138 59.82 82.474 59.164 79.489z" fill="#753915" stroke-width="none" opacity="1" stroke="none"></path><path id="SvgjsPath15510" d="M57.299 85.194c0.596 7.711 10.944 14.457 20.563 13.577 9.616-0.885 16.854-7.841 16.152-15.544 -0.697-7.699-9.053-13.224-18.673-12.342C65.722 71.771 56.48 74.647 57.299 85.194zM59.164 79.489c0 0 0.494-0.457 11.26-1.399 5.132-0.449 18.315 5.495 17.873 8.456 -0.458 3.084-8.658 4.591-12.605 4.859C64.91 92.138 59.82 82.474 59.164 79.489z" fill="url(#SvgjsRadialGradient15511)" opacity="1"></path><path id="SvgjsPath15515" d="M59.164 79.489c0.656 2.984 5.746 12.648 16.527 11.916 3.947-0.268 12.147-1.775 12.605-4.859 0.442-2.96-12.741-8.905-17.873-8.456C59.658 79.032 59.164 79.489 59.164 79.489z" fill="url(#SvgjsRadialGradient15516)" opacity="1"></path><path id="SvgjsPath15519" d="M89.272 84.051c-9.365-8.255-15.681-9.444-26.325-6.843C74.826 75.577 78.788 76.221 89.272 84.051z" fill="#471b00" stroke-width="none" opacity="1" stroke="none"></path><path id="SvgjsPath15520" d="M89.457 86.159c-10.688-7.252-18.895-9.297-29.592-5.721 7.413 12.207 14.331 13.277 28.641 7.17 -12.068 7.83-23.316 6.142-30.932-7.425l-1.801-0.397C70.015 74.647 81.801 77.914 89.457 86.159z" fill="#09152e" stroke-width="none" opacity="1" stroke="none"></path></g></g><g id="svga-group-eyes-right" ><g id="svga-group-eyesback-right"><path id="SvgjsPath15492" d="M140.437 79.489c-0.656 2.984-5.746 12.648-16.527 11.916 -3.947-0.268-12.147-1.775-12.605-4.859 -0.442-2.96 12.741-8.905 17.873-8.456C139.942 79.032 140.437 79.489 140.437 79.489z" fill="url(#SvgjsRadialGradient15493)" opacity="1"></path></g><g id="svga-group-eyesiriswrapper-right" transform="translate(-0.5 0.5)"><g id="svga-group-eyesiriscontrol-right" ><g id="svga-group-eyesiris-right" ><path id="SvgjsPath15547" d="M133.234 86.646c-1.088 5.321-5.203 8.456-9.202 6.992 -3.994-1.458-6.356-6.963-5.267-12.284 1.087-5.324 5.21-8.458 9.204-6.994C131.966 75.818 134.324 81.323 133.234 86.646z" fill="#681711" stroke="#3a0400" stroke-width="0.5" opacity="1"></path><path id="SvgjsPath15548" d="M132.069 86.771c-1.062 4.085-4.261 6.468-7.375 5.33 -2.875-1.052-4.69-4.73-4.454-8.618 1.067-0.111 2.235-0.146 3.445-0.066 -0.011 0.055-0.035 0.103-0.046 0.161 -0.381 1.875 0.508 3.84 1.99 4.383 1.489 0.542 3.001-0.547 3.385-2.42 0.049-0.244 0.073-0.49 0.083-0.732C130.11 85.305 131.108 85.943 132.069 86.771z" fill="#77251f" stroke-width="none" opacity="1" stroke="none"></path><path id="SvgjsPath15549" d="M127.017 81.018c-1.504-0.573-3.036 0.569-3.425 2.564 -0.387 1.987 0.515 4.063 2.02 4.637 1.504 0.575 3.035-0.57 3.426-2.555C129.427 83.669 128.52 81.591 127.017 81.018zM127.343 88.071c-0.623 0.258-1.271-0.085-1.44-0.771 -0.168-0.684 0.204-1.445 0.833-1.697 0.629-0.26 1.272 0.085 1.445 0.766C128.351 87.049 127.978 87.811 127.343 88.071z" fill="#000000" stroke-width="none" opacity="0.9"></path><path id="SvgjsPath15550" d="M122.014 89.265c-0.461 0.368-1.15 0.039-1.547-0.745 -0.396-0.776-0.335-1.706 0.128-2.079 0.459-0.364 1.155-0.033 1.547 0.746C122.533 87.964 122.479 88.895 122.014 89.265z" fill="#ffffff" stroke-width="none" opacity="0.6"></path><path id="SvgjsPath15551" d="M131.888 83.568c-1.06 0.844-2.646 0.083-3.548-1.701 -0.897-1.786-0.766-3.919 0.293-4.761 1.056-0.85 2.646-0.088 3.54 1.698C133.074 80.591 132.945 82.722 131.888 83.568z" fill="#ffffff" stroke-width="none" opacity="0.9"></path></g></g></g><g id="svga-group-eyesfront-right"><path id="SvgjsPath15530" d="M127.579 60.133c-10.453-0.915-19.903 9.495-21.106 23.249 -1.203 13.754 6.296 25.646 16.749 26.561 10.453 0.914 19.903-9.495 21.106-23.249C145.531 72.94 138.033 61.048 127.579 60.133zM123.909 91.405c-3.947-0.268-12.147-1.775-12.605-4.859 -0.442-2.96 12.741-8.905 17.873-8.456 10.766 0.942 11.26 1.399 11.26 1.399C139.78 82.474 134.69 92.138 123.909 91.405z" fill="#753915" stroke-width="none" opacity="1" stroke="none"></path><path id="SvgjsPath15531" d="M124.259 70.885c-9.62-0.882-17.976 4.643-18.673 12.342 -0.701 7.703 6.536 14.659 16.152 15.544 9.619 0.88 19.968-5.866 20.563-13.577C143.12 74.647 133.879 71.771 124.259 70.885zM123.909 91.405c-3.947-0.268-12.147-1.775-12.605-4.859 -0.442-2.96 12.741-8.905 17.873-8.456 10.766 0.942 11.26 1.399 11.26 1.399C139.78 82.474 134.69 92.138 123.909 91.405z" fill="url(#SvgjsRadialGradient15532)" opacity="1"></path><path id="SvgjsPath15536" d="M140.437 79.489c-0.656 2.984-5.746 12.648-16.527 11.916 -3.947-0.268-12.147-1.775-12.605-4.859 -0.442-2.96 12.741-8.905 17.873-8.456C139.942 79.032 140.437 79.489 140.437 79.489z" fill="url(#SvgjsRadialGradient15537)" opacity="1"></path><path id="SvgjsPath15540" d="M110.328 84.051c9.365-8.255 15.681-9.444 26.325-6.843C124.774 75.577 120.813 76.221 110.328 84.051z" fill="#471b00" stroke-width="none" opacity="1" stroke="none"></path><path id="SvgjsPath15541" d="M110.144 86.159c10.688-7.252 18.895-9.297 29.592-5.721 -7.413 12.207-14.331 13.277-28.641 7.17 12.068 7.83 23.316 6.142 30.932-7.425l1.801-0.397C129.586 74.647 117.8 77.914 110.144 86.159z" fill="#09152e" stroke-width="none" opacity="1" stroke="none"></path></g></g><g id="svga-group-facehighlight-single" ><path id="SvgjsPath15299" d="M141 113.974c0.035 22.622-18.292 40.994-40.938 41.025 -22.642 0.037-41.028-18.273-41.063-40.9 -0.035-22.62 18.292-41.064 40.937-41.1C122.579 72.964 140.967 91.349 141 113.974z" fill="url(#SvgjsRadialGradient15300)" opacity="1"></path><path id="SvgjsPath15303" d="M137.5 53.999c0 20.711-16.789 37.5-37.499 37.5 -20.711 0-37.501-16.789-37.501-37.5s16.79-37.5 37.501-37.5C120.711 16.499 137.5 33.288 137.5 53.999z" fill="url(#SvgjsRadialGradient15304)" opacity="1"></path></g><g id="svga-group-eyebrows-left" ><path id="SvgjsPath15552" d="M51.602 75.92c18.88-17.059 45.16-8.306 39.295-6.457C88.863 70.104 69.741 63.525 51.602 75.92z" fill="#4e4341" stroke-width="none" opacity="1" stroke="none"></path></g><g id="svga-group-eyebrows-right" ><path id="SvgjsPath15553" d="M148.398 75.92c-18.88-17.059-45.16-8.306-39.296-6.457C111.137 70.104 130.259 63.525 148.398 75.92z" fill="#4e4341" stroke-width="none" opacity="1" stroke="none"></path></g><g id="svga-group-nose-single" ><path id="SvgjsPath15559" d="M101.103 118.646c-0.471 0.511-0.857 0.45-1.3-0.08l-4.951-5.988h12.15L101.103 118.646z" fill="#662b08" stroke-width="none" opacity="1" stroke="none"></path><path id="SvgjsPath15560" d="M93.465 113.508l6.435 5.234c0.537 0.437 0.744 0.271 0.463-0.367l-2.294-5.2c-0.112-0.252-0.146-0.675-0.078-0.942L99.355 103l-6.072 8.74C92.848 112.277 92.928 113.072 93.465 113.508z" fill="#471b00" stroke-width="none" opacity="1" stroke="none"></path></g><g id="svga-group-beardwrap" ><g id="svga-group-beard-single" ><path id="SvgjsPath15317" d="M100,18.13L100,18.13L100,18.13L100,18.13z" fill="#2a232b" stroke-width="none" opacity="1"></path></g></g><g id="svga-group-mustache-single" ><path id="SvgjsPath15315" d="M100,18.13L100,18.13L100,18.13L100,18.13z" fill="#2a232b" stroke-width="none" opacity="1"></path></g><g id="svga-group-hair-front" ><path id="SvgjsPath15465" d="M164.354 50.741c-0.165-3.292-1.526-8.266-2.485-11.305 -1.113 1.915-1.224 1.915-1.877 2.927 -0.21-1.212-1.637-13.946-6.382-21.2 -0.544 1.912 0.056 4.105-1.088 5.567 -2.565-5.342-6.325-14.564-14.831-20.638 0.87 2.274 0.411 2.914 0.605 3.684 -2.516-3.628-5.512-5.54-10.311-8.295 0 1.687 0.163 2.755 0.163 2.755 -1.758-2.027-5.78-7.704-10.939-10.969 0.243 0.876-0.251 2.776-0.075 3.715 -1.69-3.599-6.87-10.572-11.955-9.723 -1.45-1.439-2.657-3.886-3.964-5.516 -0.82 4.329-7.635 13.833-14.676 18.103 0.232-1.79-0.102-3.37-0.543-5.19 -1.27 2.61-5.393 7.668-8.387 8.851C77.91 2.195 77.677-0.3 77.677-0.3c-1.589 2.085-2.963 3.242-5.06 5.084 0.026-1.172 0.624-3.642 0.979-4.879 -3.298 1.462-6.569 5.342-8.968 8.154 -0.261-1.604 0.271-4.964 0.813-5.703C53.647 10.157 48.067 16.424 42.691 31.51c-0.351-0.752-0.593-1.671-0.707-4.166 -6.725 10.937-10.54 18.516-3.459 45.811 -1.445-0.857-2.233-1.482-3.38-2.611 1.693 11.378 4.166 15.151 12.679 24.861 4.188-4.89 1.939-13.492 1.253-17.578 0.099-6.172 1.819-5.103 2.072-7.899 0.114-1.255 0.776-3.367 0.659-4.622 -0.472-5.024 1.132-13.964 3.475-19.847 3.592-5.277 7.713-8.823 13.048-12.029 8.422-1.67 16.253 1.805 18.647 2.425 4.326 1.12 21.693 1.12 26.021 0 2.995-0.775 11.371-4.294 20.026-1.996 6.533 3.737 10.179 7.242 12.862 14.031 1.712 5.4 2.685 12.117 2.28 16.415 -0.117 1.255 0.449 4.367 0.563 5.623 0.104 1.147 1.568 3.689 1.842 4.807 1.123 4.612-1.238 16.915-1.238 16.915 -0.065 1.727 0.09 3.432 0.646 5.076 6.195-3.866 6.614-6.152 7.502-9.064 0.732-2.409 4.626-11.52 4.744-13.19 -0.79 0.872-2.409 1.954-3.271 2.362 0.708-2.756 3.952-7.96 4.58-10.966C164.64 60.571 164.625 56.232 164.354 50.741z" fill="#3f312e" stroke-width="none" opacity="1" stroke="none"></path><path id="SvgjsPath15466" d="M164.354 50.741c-0.165-3.292-1.526-8.266-2.485-11.305 -1.113 1.915-1.224 1.915-1.877 2.927 -0.21-1.212-1.637-13.946-6.382-21.2 -0.544 1.912 0.056 4.105-1.088 5.567 -2.565-5.342-6.325-14.564-14.831-20.638 0.87 2.274 0.411 2.914 0.605 3.684 -2.516-3.628-5.512-5.54-10.311-8.295 0 1.687 0.163 2.755 0.163 2.755 -1.758-2.027-5.78-7.704-10.939-10.969 0.243 0.876-0.251 2.776-0.075 3.715 -1.69-3.599-6.87-10.572-11.955-9.723 -1.45-1.439-2.657-3.886-3.964-5.516 -0.82 4.329-7.635 13.833-14.676 18.103 0.232-1.79-0.102-3.37-0.543-5.19 -1.27 2.61-5.393 7.668-8.387 8.851C77.91 2.195 77.677-0.3 77.677-0.3c-1.589 2.085-2.963 3.242-5.06 5.084 0.026-1.172 0.624-3.642 0.979-4.879 -3.298 1.462-6.569 5.342-8.968 8.154 -0.261-1.604 0.271-4.964 0.813-5.703C53.647 10.157 48.067 16.424 42.691 31.51c-0.351-0.752-0.593-1.671-0.707-4.166 -6.725 10.937-10.54 18.516-3.459 45.811 -1.445-0.857-2.233-1.482-3.38-2.611 1.646 11.061 4.046 14.951 11.998 24.078C43.336 88.193 38.709 82.69 37 75c2 1 5 3 7 4 -5-14-10-32-3-45 1 4 3.536 8.736 5.536 11.736C42.163 33.861 52 19 59 10c0 5-1 11 1 16 0-7 5-11 8-17 0 4-1 7 1 11 1-5 2-10 5-14 2 4 1 8 3 12 0-6 3-9 4-14 2.203 5.069 4 6 5 10C85 3 100.203 2.069 101.203-8.931 102.203-1.931 104 3 103 11c4-5 6-11 7-18 7 6 5 14 8 21 2-4 2-9 3-14 4 7 8 15 11 23 1-5 2.869-7.264 0-15 7 5 12 14 11 23 1-5 2-10 2-15 1 11 8 21 7 33 2-5 4-10 4-16 0.914 10.055 2.649 20.944-0.112 31.143C157.422 60.349 160 56.819 160 52c3 11-7 20-6 31 0-1.705 2.9-2.685 3.757-4.176 0.081-0.275 0.161-0.549 0.243-0.824 0 0.295-0.095 0.566-0.243 0.824 -1.587 5.382-2.937 10.756-4.976 15.966 3.552-2.768 3.972-4.738 4.7-7.128 0.732-2.409 4.626-11.52 4.744-13.19 -0.79 0.872-2.409 1.954-3.271 2.362 0.708-2.756 3.952-7.96 4.58-10.966C164.64 60.571 164.625 56.232 164.354 50.741z" fill="#4e4341" stroke-width="none" opacity="1" stroke="none"></path><path id="SvgjsPath15467" d="M161.665 37.305c-0.379 1.596-0.486 1.958-1.128 3.53 -0.481-5.606-2.956-14.695-7.356-21.02 -0.135 2.162-0.249 3.328-0.582 5.35 -1.185-4.271-6.48-13.985-15.768-20.25 0.117 0.35 0.243 0.7 0.368 1.05v0.01c0.269 0.782 0.497 1.646 0.749 2.51 -3.827-4.758-7.283-5.571-10.618-7.87 0.17 0.983 0.271 1.968 0.281 2.04 -4.046-5.492-7.033-7.687-10.743-9.77 0.037 0.462 0.146 2.427 0.123 3.628 -2.432-5.127-4.641-8.986-11.875-9.698 -0.518-1-2.313-4.095-4.139-5.98 -2.3 8.074-8.614 13.707-14.156 18.47 0-1.865-0.302-3.701-0.718-5.49 -2.252 4.016-3.98 6.186-8.262 9.45 0.077-0.766 0.157-3.07 0.097-4.47 -1.174 1.616-3.048 3.649-5.119 5.41 0 0 1.164-4.899 1.174-4.95 -0.156 0.08-0.313 0.15-0.476 0.25 -0.97 0.244-5.192 2.951-8.911 7.81 0.362-3.423 1.047-4.68 1.29-5.68C54.794 7.997 45.986 17.907 42.5 30.575c-0.183-1.78-0.263-3.29-0.263-3.85 -5.115 6.421-7.534 13.02-7.872 14.68 -2.056 9.273 0.458 24.735 3.51 31.24 -1.917-1.524-0.184 0.004-3.2-2.73 0 4.709 1 8.023 2.725 12.09 2.438 5.747 5.88 9.351 10.424 13.4 -4.686-5.73-11.09-13.702-12.354-24.13 0.847 0.833 1.34 1.163 2.793 2.27h0.01c0 0.01 0 0.01 0 0.01 0.647 0.445 0.262 0.244 1.017 0.67 -7.5-27.167-2.066-37.896 2.511-46.39 0.124 3.95 0.819 5.709 2.144 7.9 -0.678-1.744-0.593-1.174-1.116-3.29 3.622-11.552 12.162-20.972 21.352-28.78 0.241-0.2 0.474-0.39 0.717-0.57 -0.32 0.826-0.824 3.42-0.824 5.01 -2.103 2.984-2.484 5.539-2.676 6.63 0.333-1 0.693-2.642 2.686-5.36v-0.01c2.599-4.016 7.259-7.938 9.27-9.3 -1.309 4.38-1.364 6.104-1.289 9.34 0.189-1.823 0.17-1.918 0.61-4.38 1.673-1.295 3.37-2.965 4.868-4.95 -0.109 2.301 0.029 5.486-1.271 8.33 1.1-1.655 1.532-3.7 1.532-4.7 1.309-0.804 4.459-2.157 8.106-8.4 0.789 5.342 0.201 8.289-0.592 10.43 0.645-1.211 1.512-2.889 1.512-5.79 6.763-4.663 11.506-8.768 14.235-16.83 0.076-0.31 0.156-0.61 0.212-0.91 1.518 2.183 7.604 11.9 6.382 14.49 1.547-1.57-1.223-7.455-2.308-9.47 7.645 1.914 8.36 4.039 13.572 14.82 -0.604-2.008-1.115-3.768-1.461-4.75 0.128-1.828 0.006-2.7-0.091-3.7 5.226 4.036 13.838 13.564 13.838 20.81 0.431-2.713 0.241-5.092-1.939-9.13 -0.271-0.49-0.543-0.97-0.836-1.39 -0.071-0.628-0.337-1.92-0.337-1.92 1.802 1.904 5.755 2.333 10.442 9.38 0.621 0.848 3.49 6.394 4.625 8.37 -2.375-6.62-3.041-7.672-3.878-9.23 -0.4-1.75-0.362-1.621-0.99-3.44 10.538 10.395 14.488 16.94 15.863 31.69 0.243-3.948 0.12-7.996-1.017-11.76 0.323-1.404 0.551-2.975 0.715-4.49 0.695 1.441 3.522 8.543 4.908 15.4 1.206 6.061 1.19 9.764 0.891 13.85 1.025-4.236 1.109-8.009 0.961-9.49 0.363-0.564 0.646-1.233 0.892-1.78 1.945 10.561 4.878 19.245-3.636 37.52 0.972-0.517 2.738-1.491 3.782-2.74 0 0-2.979 7.104-4.577 11.66 -2.787 6.939-2.47 6.195-7.099 9.82 5.116-2.12 6.527-5.081 8.205-9.4 3.162-9.217 2.862-6.158 5.255-15.11 -1.086 1.406-1.966 2.511-3.328 3.68C169.403 59.004 164.447 47.467 161.665 37.305z" fill="#201311" stroke-width="none" opacity="1" stroke="none"></path></g><g id="svga-group-glasses-single" ><path id="SvgjsPath15435" d="M100,18.13L100,18.13L100,18.13L100,18.13z" fill="#26120b" stroke-width="none" opacity="1"></path></g></g></g><rect id="SvgjsRect15284" width="200" height="15" x="0" y="185" fill="#ecf0f1" opacity="0.5" style="display:none;"></rect><text id="SvgjsText15285" font-family="&quot;Roboto&quot;, &quot;Helvetica Neue&quot;, Helvetica, Arial, sans-serif" style="font-size:0.84em;font-family:&quot;Roboto&quot;, &quot;Helvetica Neue&quot;, Helvetica, Arial, sans-serif;text-anchor:middle;font-weight:400;display:none;" font-size="0.84em" text-anchor="middle" font-weight="400" fill="#000000" x="100" y="185"><tspan id="SvgjsTspan15286" dy="1.2em" x="100" style="font-size:0.84em;font-family:&quot;Roboto&quot;, &quot;Helvetica Neue&quot;, Helvetica, Arial, sans-serif;text-anchor:middle;font-weight:400;">Created on Cartoonize.net</tspan></text></g><defs id="SvgjsDefs15249"><radialGradient id="SvgjsRadialGradient15300" cx="100" cy="114" r="41" gradientUnits="userSpaceOnUse" class="svga-on-canvas-facehighlight-gradient-single-0"><stop id="SvgjsStop15301" stop-opacity="0.5" stop-color="#844925" offset="0" ></stop><stop id="SvgjsStop15302" stop-opacity="0" stop-color="#753915" offset="0.9" ></stop></radialGradient><radialGradient id="SvgjsRadialGradient15304" cx="100" cy="54" r="37" gradientUnits="userSpaceOnUse" class="svga-on-canvas-facehighlight-gradient-single-1"><stop id="SvgjsStop15305" stop-opacity="0.5" stop-color="#844925" offset="0" ></stop><stop id="SvgjsStop15306" stop-opacity="0" stop-color="#753915" offset="0.9" ></stop></radialGradient><radialGradient id="SvgjsRadialGradient15389" cx="-568.659" cy="-521.042" r="59.751" gradientTransform="matrix(0.096 -0.0248 0.0245 0.0961 141.2814 119.9893)" gradientUnits="userSpaceOnUse" class="svga-on-canvas-eyesiris-gradient-left-1"><stop id="SvgjsStop15390" stop-opacity="1" stop-color="#ffffff" offset="0" ></stop><stop id="SvgjsStop15391" stop-opacity="0" stop-color="#ffffff" offset="1" ></stop></radialGradient><radialGradient id="SvgjsRadialGradient15393" cx="-582.838" cy="-519.099" r="59.745" gradientTransform="matrix(0.0991 8.856319e-004 -0.0011 0.0991 131.1134 135.9855)" gradientUnits="userSpaceOnUse" class="svga-on-canvas-eyesiris-gradient-left-2"><stop id="SvgjsStop15394" stop-opacity="1" stop-color="#ffffff" offset="0" ></stop><stop id="SvgjsStop15395" stop-opacity="0" stop-color="#ffffff" offset="1" ></stop></radialGradient><linearGradient id="SvgjsLinearGradient15399" x1="122.67" y1="88.268" x2="123.606" y2="87.152" gradientTransform="matrix(1 0 0 1 -52 0)" gradientUnits="userSpaceOnUse" class="svga-on-canvas-eyesiris-gradient-left-5"><stop id="SvgjsStop15400" stop-opacity="1" stop-color="#ffffff" offset="0" ></stop><stop id="SvgjsStop15401" stop-opacity="0" stop-color="#ffffff" offset="1" ></stop></linearGradient><linearGradient id="SvgjsLinearGradient15403" x1="127.212" y1="82.296" x2="126.463" y2="83.189" gradientTransform="matrix(1 0 0 1 -52 0)" gradientUnits="userSpaceOnUse" class="svga-on-canvas-eyesiris-gradient-left-6"><stop id="SvgjsStop15404" stop-opacity="1" stop-color="#ffffff" offset="0" ></stop><stop id="SvgjsStop15405" stop-opacity="0" stop-color="#ffffff" offset="1" ></stop></linearGradient><linearGradient id="SvgjsLinearGradient15407" x1="129.636" y1="79.822" x2="127.91" y2="81.879" gradientTransform="matrix(1 0 0 1 -52 0)" gradientUnits="userSpaceOnUse" class="svga-on-canvas-eyesiris-gradient-left-7"><stop id="SvgjsStop15408" stop-opacity="1" stop-color="#ffffff" offset="0" ></stop><stop id="SvgjsStop15409" stop-opacity="0" stop-color="#ffffff" offset="1" ></stop></linearGradient><radialGradient id="SvgjsRadialGradient15412" cx="-568.654" cy="-521.042" r="59.752" gradientTransform="matrix(0.096 -0.0248 0.0245 0.0961 193.2804 119.9894)" gradientUnits="userSpaceOnUse" class="svga-on-canvas-eyesiris-gradient-right-1"><stop id="SvgjsStop15413" stop-opacity="1" stop-color="#ffffff" offset="0" ></stop><stop id="SvgjsStop15414" stop-opacity="0" stop-color="#ffffff" offset="1" ></stop></radialGradient><radialGradient id="SvgjsRadialGradient15416" cx="-582.833" cy="-519.102" r="59.747" gradientTransform="matrix(0.0991 8.856319e-004 -0.0011 0.0991 183.1126 135.9856)" gradientUnits="userSpaceOnUse" class="svga-on-canvas-eyesiris-gradient-right-2"><stop id="SvgjsStop15417" stop-opacity="1" stop-color="#ffffff" offset="0" ></stop><stop id="SvgjsStop15418" stop-opacity="0" stop-color="#ffffff" offset="1" ></stop></radialGradient><linearGradient id="SvgjsLinearGradient15422" x1="122.67" y1="88.268" x2="123.606" y2="87.152" gradientUnits="userSpaceOnUse" class="svga-on-canvas-eyesiris-gradient-right-5"><stop id="SvgjsStop15423" stop-opacity="1" stop-color="#ffffff" offset="0" ></stop><stop id="SvgjsStop15424" stop-opacity="0" stop-color="#ffffff" offset="1" ></stop></linearGradient><linearGradient id="SvgjsLinearGradient15426" x1="127.212" y1="82.296" x2="126.463" y2="83.189" gradientUnits="userSpaceOnUse" class="svga-on-canvas-eyesiris-gradient-right-6"><stop id="SvgjsStop15427" stop-opacity="1" stop-color="#ffffff" offset="0" ></stop><stop id="SvgjsStop15428" stop-opacity="0" stop-color="#ffffff" offset="1" ></stop></linearGradient><linearGradient id="SvgjsLinearGradient15430" x1="129.636" y1="79.822" x2="127.91" y2="81.879" gradientUnits="userSpaceOnUse" class="svga-on-canvas-eyesiris-gradient-right-7"><stop id="SvgjsStop15431" stop-opacity="1" stop-color="#ffffff" offset="0" ></stop><stop id="SvgjsStop15432" stop-opacity="0" stop-color="#ffffff" offset="1" ></stop></linearGradient><radialGradient id="SvgjsRadialGradient15485" cx="126.447" cy="84.159" r="11.163" gradientTransform="matrix(-0.9962 0.0872 0.0872 0.9962 192.5183 -10.188)" gradientUnits="userSpaceOnUse" class="svga-on-canvas-eyesback-gradient-left-0"><stop id="SvgjsStop15486" stop-opacity="1" stop-color="#ffffff" offset="0" ></stop><stop id="SvgjsStop15487" stop-opacity="1" stop-color="#fdfefe" offset="0.544" ></stop><stop id="SvgjsStop15488" stop-opacity="1" stop-color="#f6f8f9" offset="0.74" ></stop><stop id="SvgjsStop15489" stop-opacity="1" stop-color="#eaeff2" offset="0.879" ></stop><stop id="SvgjsStop15490" stop-opacity="1" stop-color="#d9e3e8" offset="0.992" ></stop><stop id="SvgjsStop15491" stop-opacity="1" stop-color="#d8e2e7" offset="1" ></stop></radialGradient><radialGradient id="SvgjsRadialGradient15493" cx="126.049" cy="84.193" r="11.164" gradientTransform="matrix(0.9962 0.0872 -0.0872 0.9962 7.4817 -10.188)" gradientUnits="userSpaceOnUse" class="svga-on-canvas-eyesback-gradient-right-0"><stop id="SvgjsStop15494" stop-opacity="1" stop-color="#ffffff" offset="0" ></stop><stop id="SvgjsStop15495" stop-opacity="1" stop-color="#fdfefe" offset="0.544" ></stop><stop id="SvgjsStop15496" stop-opacity="1" stop-color="#f6f8f9" offset="0.74" ></stop><stop id="SvgjsStop15497" stop-opacity="1" stop-color="#eaeff2" offset="0.879" ></stop><stop id="SvgjsStop15498" stop-opacity="1" stop-color="#d9e3e8" offset="0.992" ></stop><stop id="SvgjsStop15499" stop-opacity="1" stop-color="#d8e2e7" offset="1" ></stop></radialGradient><radialGradient id="SvgjsRadialGradient15501" cx="126.447" cy="84.159" r="11.163" gradientTransform="matrix(-0.9962 0.0872 0.0872 0.9962 192.5183 -10.188)" gradientUnits="userSpaceOnUse" class="svga-on-canvas-eyesfront-gradient-left-0"><stop id="SvgjsStop15502" stop-opacity="1" stop-color="#ffffff" offset="0" ></stop><stop id="SvgjsStop15503" stop-opacity="1" stop-color="#fdfefe" offset="0.544" ></stop><stop id="SvgjsStop15504" stop-opacity="1" stop-color="#f6f8f9" offset="0.74" ></stop><stop id="SvgjsStop15505" stop-opacity="1" stop-color="#eaeff2" offset="0.879" ></stop><stop id="SvgjsStop15506" stop-opacity="1" stop-color="#d9e3e8" offset="0.992" ></stop><stop id="SvgjsStop15507" stop-opacity="1" stop-color="#d8e2e7" offset="1" ></stop></radialGradient><radialGradient id="SvgjsRadialGradient15511" cx="124.554" cy="83.995" fx="137.153" fy="84.031" r="17.919" gradientTransform="matrix(0.9978 -0.0665 -0.0532 -0.7982 -44.0519 159.674)" gradientUnits="userSpaceOnUse" class="svga-on-canvas-eyesfront-gradient-left-3"><stop id="SvgjsStop15512" stop-opacity="1" stop-color="#662b08" offset="0" ></stop><stop id="SvgjsStop15513" stop-opacity="0.3" stop-color="#662b08" offset="0.7" ></stop><stop id="SvgjsStop15514" stop-opacity="0" stop-color="#753915" offset="1" ></stop></radialGradient><radialGradient id="SvgjsRadialGradient15516" cx="122.977" cy="103.529" r="28.578" gradientTransform="matrix(-0.7987 -0.6018 -0.4273 0.5671 221.4891 118.9702)" gradientUnits="userSpaceOnUse" class="svga-on-canvas-eyesfront-gradient-left-4"><stop id="SvgjsStop15517" stop-opacity="0" stop-color="#000000" offset="0.9" ></stop><stop id="SvgjsStop15518" stop-opacity="0.2" stop-color="#000000" offset="1" ></stop></radialGradient><radialGradient id="SvgjsRadialGradient15522" cx="126.049" cy="84.193" r="11.164" gradientTransform="matrix(0.9962 0.0872 -0.0872 0.9962 7.4817 -10.188)" gradientUnits="userSpaceOnUse" class="svga-on-canvas-eyesfront-gradient-right-0"><stop id="SvgjsStop15523" stop-opacity="1" stop-color="#ffffff" offset="0" ></stop><stop id="SvgjsStop15524" stop-opacity="1" stop-color="#fdfefe" offset="0.544" ></stop><stop id="SvgjsStop15525" stop-opacity="1" stop-color="#f6f8f9" offset="0.74" ></stop><stop id="SvgjsStop15526" stop-opacity="1" stop-color="#eaeff2" offset="0.879" ></stop><stop id="SvgjsStop15527" stop-opacity="1" stop-color="#d9e3e8" offset="0.992" ></stop><stop id="SvgjsStop15528" stop-opacity="1" stop-color="#d8e2e7" offset="1" ></stop></radialGradient><radialGradient id="SvgjsRadialGradient15532" cx="124.155" cy="84.03" fx="136.755" fy="84.066" r="17.92" gradientTransform="matrix(-0.9978 -0.0665 0.0532 -0.7982 243.2525 159.6759)" gradientUnits="userSpaceOnUse" class="svga-on-canvas-eyesfront-gradient-right-3"><stop id="SvgjsStop15533" stop-opacity="1" stop-color="#662b08" offset="0" ></stop><stop id="SvgjsStop15534" stop-opacity="0.3" stop-color="#662b08" offset="0.7" ></stop><stop id="SvgjsStop15535" stop-opacity="0" stop-color="#753915" offset="1" ></stop></radialGradient><radialGradient id="SvgjsRadialGradient15537" cx="122.578" cy="103.564" r="28.579" gradientTransform="matrix(0.7987 -0.6018 0.4273 0.5671 -21.5857 118.7105)" gradientUnits="userSpaceOnUse" class="svga-on-canvas-eyesfront-gradient-right-4"><stop id="SvgjsStop15538" stop-opacity="0" stop-color="#000000" offset="0.9" ></stop><stop id="SvgjsStop15539" stop-opacity="0.2" stop-color="#000000" offset="1" ></stop></radialGradient><linearGradient id="SvgjsLinearGradient15555" x1="100" y1="141" x2="100" y2="137" gradientUnits="userSpaceOnUse" class="svga-on-canvas-mouth-gradient-single-0"><stop id="SvgjsStop15556" stop-opacity="1" stop-color="#6d320e" offset="0.1" ></stop><stop id="SvgjsStop15557" stop-opacity="1" stop-color="#662b08" offset="1" ></stop></linearGradient><linearGradient id="SvgjsLinearGradient15581" x1="100" y1="172" x2="100" y2="122" gradientUnits="userSpaceOnUse" class="svga-on-canvas-chinshadow-gradient-single-0"><stop id="SvgjsStop15582" stop-opacity="0.8" stop-color="#662b08" offset="0" ></stop><stop id="SvgjsStop15583" stop-opacity="1" stop-color="#471b00" offset="0.7" ></stop></linearGradient></defs></svg>